<svg xmlns="http://www.w3.org/2000/svg" xmlns:xlink="http://www.w3.org/1999/xlink" width="500" zoomAndPan="magnify" viewBox="0 0 375 374.999991" height="500" preserveAspectRatio="xMidYMid meet" version="1.0"><defs><g/><clipPath id="5c9f3faaa7"><path d="M 17.25 0 L 357.75 0 C 362.324219 0 366.710938 1.816406 369.949219 5.050781 C 373.183594 8.289062 375 12.675781 375 17.25 L 375 357.75 C 375 362.324219 373.183594 366.710938 369.949219 369.949219 C 366.710938 373.183594 362.324219 375 357.75 375 L 17.25 375 C 12.675781 375 8.289062 373.183594 5.050781 369.949219 C 1.816406 366.710938 0 362.324219 0 357.75 L 0 17.25 C 0 12.675781 1.816406 8.289062 5.050781 5.050781 C 8.289062 1.816406 12.675781 0 17.25 0 " clip-rule="nonzero"/></clipPath></defs><g clip-path="url(#5c9f3faaa7)"><path fill="#ffffff" d="M 0 0 L 374.414062 0 L 374.414062 374.414062 L 0 374.414062 Z M 0 0 " fill-opacity="1" fill-rule="nonzero"/></g><g fill="#2a78ab" fill-opacity="1"><g transform="translate(24.152347, 288.98503)"><g><path d="M 20.015625 -220.40625 L 109.734375 -220.40625 C 134.117188 -220.40625 155.117188 -216.03125 172.734375 -207.28125 C 190.347656 -198.53125 203.84375 -185.867188 213.21875 -169.296875 C 222.601562 -152.722656 227.296875 -133.078125 227.296875 -110.359375 C 227.296875 -87.429688 222.65625 -67.679688 213.375 -51.109375 C 204.101562 -34.546875 190.660156 -21.882812 173.046875 -13.125 C 155.429688 -4.375 134.328125 0 109.734375 0 L 20.015625 0 Z M 105.671875 -46.265625 C 127.347656 -46.265625 143.5 -51.578125 154.125 -62.203125 C 164.757812 -72.835938 170.078125 -88.890625 170.078125 -110.359375 C 170.078125 -131.828125 164.757812 -147.820312 154.125 -158.34375 C 143.5 -168.875 127.347656 -174.140625 105.671875 -174.140625 L 77.53125 -174.140625 L 77.53125 -46.265625 Z M 105.671875 -46.265625 "/></g></g></g><g fill="#000000" fill-opacity="1"><g transform="translate(265.816397, 288.98503)"><g><path d="M 13.4375 -56.90625 L 71.28125 -56.90625 L 71.28125 0 L 13.4375 0 Z M 13.4375 -56.90625 "/></g></g></g></svg>