<svg xmlns="http://www.w3.org/2000/svg" xmlns:xlink="http://www.w3.org/1999/xlink" width="850" zoomAndPan="magnify" viewBox="0 0 637.5 299.999988" height="400" preserveAspectRatio="xMidYMid meet" version="1.0"><defs><g/></defs><g fill="#2a78ab" fill-opacity="1"><g transform="translate(0.0115382, 232.085176)"><g><path d="M 16.015625 -176.34375 L 87.796875 -176.34375 C 107.304688 -176.34375 124.101562 -172.835938 138.1875 -165.828125 C 152.28125 -158.828125 163.078125 -148.695312 170.578125 -135.4375 C 178.085938 -122.1875 181.84375 -106.472656 181.84375 -88.296875 C 181.84375 -69.953125 178.128906 -54.148438 170.703125 -40.890625 C 163.285156 -27.640625 152.53125 -17.507812 138.4375 -10.5 C 124.351562 -3.5 107.472656 0 87.796875 0 L 16.015625 0 Z M 84.546875 -37.015625 C 101.890625 -37.015625 114.8125 -41.265625 123.3125 -49.765625 C 131.8125 -58.273438 136.0625 -71.117188 136.0625 -88.296875 C 136.0625 -105.472656 131.8125 -118.269531 123.3125 -126.6875 C 114.8125 -135.101562 101.890625 -139.3125 84.546875 -139.3125 L 62.03125 -139.3125 L 62.03125 -37.015625 Z M 84.546875 -37.015625 "/></g></g></g><g fill="#000000" fill-opacity="1"><g transform="translate(193.346194, 232.085176)"><g><path d="M 69.28125 -126.0625 C 88.625 -126.0625 102.921875 -121.597656 112.171875 -112.671875 C 121.429688 -103.753906 126.0625 -89.875 126.0625 -71.03125 L 126.0625 0 L 84.296875 0 L 84.296875 -17.265625 C 81.960938 -11.253906 78.039062 -6.539062 72.53125 -3.125 C 67.03125 0.289062 60.445312 2 52.78125 2 C 44.269531 2 36.597656 0.289062 29.765625 -3.125 C 22.929688 -6.539062 17.550781 -11.289062 13.625 -17.375 C 9.707031 -23.46875 7.75 -30.347656 7.75 -38.015625 C 7.75 -46.859375 10.039062 -53.90625 14.625 -59.15625 C 19.21875 -64.40625 26.515625 -68.195312 36.515625 -70.53125 C 46.523438 -72.863281 60.03125 -74.03125 77.03125 -74.03125 L 83.796875 -74.03125 L 83.796875 -77.03125 C 83.796875 -83.207031 82.375 -87.503906 79.53125 -89.921875 C 76.695312 -92.335938 71.695312 -93.546875 64.53125 -93.546875 C 58.863281 -93.546875 52.316406 -92.421875 44.890625 -90.171875 C 37.472656 -87.921875 30.515625 -85.046875 24.015625 -81.546875 L 12.75 -110.8125 C 19.925781 -115.144531 28.890625 -118.769531 39.640625 -121.6875 C 50.398438 -124.601562 60.28125 -126.0625 69.28125 -126.0625 Z M 63.28125 -27.765625 C 69.28125 -27.765625 74.195312 -29.890625 78.03125 -34.140625 C 81.875 -38.390625 83.796875 -43.851562 83.796875 -50.53125 L 83.796875 -53.53125 L 79.796875 -53.53125 C 69.117188 -53.53125 61.53125 -52.570312 57.03125 -50.65625 C 52.53125 -48.738281 50.28125 -45.523438 50.28125 -41.015625 C 50.28125 -37.179688 51.488281 -34.015625 53.90625 -31.515625 C 56.320312 -29.015625 59.445312 -27.765625 63.28125 -27.765625 Z M 63.28125 -27.765625 "/></g></g></g><g fill="#000000" fill-opacity="1"><g transform="translate(331.411862, 232.085176)"><g><path d="M 95.796875 -126.0625 C 110.472656 -126.0625 121.394531 -121.679688 128.5625 -112.921875 C 135.726562 -104.171875 139.3125 -90.875 139.3125 -73.03125 L 139.3125 0 L 94.796875 0 L 94.796875 -71.03125 C 94.796875 -78.375 93.503906 -83.710938 90.921875 -87.046875 C 88.335938 -90.378906 84.460938 -92.046875 79.296875 -92.046875 C 72.617188 -92.046875 67.320312 -89.921875 63.40625 -85.671875 C 59.488281 -81.421875 57.53125 -75.707031 57.53125 -68.53125 L 57.53125 0 L 13 0 L 13 -123.0625 L 56.28125 -123.0625 L 56.28125 -106.546875 C 60.613281 -112.890625 66.195312 -117.726562 73.03125 -121.0625 C 79.875 -124.394531 87.460938 -126.0625 95.796875 -126.0625 Z M 95.796875 -126.0625 "/></g></g></g><g fill="#000000" fill-opacity="1"><g transform="translate(482.733857, 232.085176)"><g><path d="M 13 0 L 13 -123.0625 L 57.53125 -123.0625 L 57.53125 0 Z M 12 -184.59375 L 58.53125 -184.59375 L 58.53125 -144.328125 L 12 -144.328125 Z M 12 -184.59375 "/></g></g></g><g fill="#000000" fill-opacity="1"><g transform="translate(553.017253, 232.085176)"><g><path d="M 10.75 -45.515625 L 57.03125 -45.515625 L 57.03125 0 L 10.75 0 Z M 10.75 -45.515625 "/></g></g></g></svg>