<svg xmlns="http://www.w3.org/2000/svg" xmlns:xlink="http://www.w3.org/1999/xlink" width="1200" zoomAndPan="magnify" viewBox="0 0 900 299.999988" height="400" preserveAspectRatio="xMidYMid meet" version="1.0"><defs><g/></defs><g fill="#2a78ab" fill-opacity="1"><g transform="translate(134.621097, 235.596732)"><g><path d="M 16.265625 -179.09375 L 89.171875 -179.09375 C 108.984375 -179.09375 126.039062 -175.535156 140.34375 -168.421875 C 154.65625 -161.304688 165.625 -151.015625 173.25 -137.546875 C 180.875 -124.085938 184.6875 -108.128906 184.6875 -89.671875 C 184.6875 -71.046875 180.914062 -55 173.375 -41.53125 C 165.84375 -28.070312 154.921875 -17.785156 140.609375 -10.671875 C 126.296875 -3.554688 109.148438 0 89.171875 0 L 16.265625 0 Z M 85.859375 -37.59375 C 103.472656 -37.59375 116.597656 -41.910156 125.234375 -50.546875 C 133.867188 -59.179688 138.1875 -72.222656 138.1875 -89.671875 C 138.1875 -107.117188 133.867188 -120.117188 125.234375 -128.671875 C 116.597656 -137.222656 103.472656 -141.5 85.859375 -141.5 L 63 -141.5 L 63 -37.59375 Z M 85.859375 -37.59375 "/></g></g></g><g fill="#ffffff" fill-opacity="1"><g transform="translate(330.98046, 235.596732)"><g><path d="M 70.359375 -128.03125 C 90.003906 -128.03125 104.523438 -123.5 113.921875 -114.4375 C 123.328125 -105.375 128.03125 -91.273438 128.03125 -72.140625 L 128.03125 0 L 85.609375 0 L 85.609375 -17.53125 C 83.234375 -11.4375 79.25 -6.648438 73.65625 -3.171875 C 68.070312 0.296875 61.382812 2.03125 53.59375 2.03125 C 44.957031 2.03125 37.164062 0.296875 30.21875 -3.171875 C 23.28125 -6.648438 17.820312 -11.476562 13.84375 -17.65625 C 9.863281 -23.832031 7.875 -30.816406 7.875 -38.609375 C 7.875 -47.585938 10.203125 -54.742188 14.859375 -60.078125 C 19.515625 -65.410156 26.921875 -69.257812 37.078125 -71.625 C 47.242188 -74 60.960938 -75.1875 78.234375 -75.1875 L 85.09375 -75.1875 L 85.09375 -78.234375 C 85.09375 -84.503906 83.65625 -88.863281 80.78125 -91.3125 C 77.90625 -93.769531 72.828125 -95 65.546875 -95 C 59.785156 -95 53.132812 -93.859375 45.59375 -91.578125 C 38.0625 -89.296875 30.992188 -86.375 24.390625 -82.8125 L 12.953125 -112.53125 C 20.234375 -116.9375 29.335938 -120.617188 40.265625 -123.578125 C 51.191406 -126.546875 61.222656 -128.03125 70.359375 -128.03125 Z M 64.265625 -28.203125 C 70.367188 -28.203125 75.363281 -30.359375 79.25 -34.671875 C 83.144531 -38.992188 85.09375 -44.539062 85.09375 -51.3125 L 85.09375 -54.359375 L 81.03125 -54.359375 C 70.195312 -54.359375 62.492188 -53.382812 57.921875 -51.4375 C 53.347656 -49.488281 51.0625 -46.226562 51.0625 -41.65625 C 51.0625 -37.757812 52.285156 -34.539062 54.734375 -32 C 57.191406 -29.46875 60.367188 -28.203125 64.265625 -28.203125 Z M 64.265625 -28.203125 "/></g></g></g><g fill="#ffffff" fill-opacity="1"><g transform="translate(471.206156, 235.596732)"><g><path d="M 97.296875 -128.03125 C 112.203125 -128.03125 123.296875 -123.582031 130.578125 -114.6875 C 137.859375 -105.800781 141.5 -92.296875 141.5 -74.171875 L 141.5 0 L 96.28125 0 L 96.28125 -72.140625 C 96.28125 -79.597656 94.96875 -85.019531 92.34375 -88.40625 C 89.71875 -91.789062 85.78125 -93.484375 80.53125 -93.484375 C 73.75 -93.484375 68.367188 -91.320312 64.390625 -87 C 60.410156 -82.6875 58.421875 -76.890625 58.421875 -69.609375 L 58.421875 0 L 13.203125 0 L 13.203125 -124.984375 L 57.15625 -124.984375 L 57.15625 -108.21875 C 61.5625 -114.65625 67.234375 -119.566406 74.171875 -122.953125 C 81.117188 -126.335938 88.828125 -128.03125 97.296875 -128.03125 Z M 97.296875 -128.03125 "/></g></g></g><g fill="#ffffff" fill-opacity="1"><g transform="translate(624.895573, 235.596732)"><g><path d="M 13.203125 0 L 13.203125 -124.984375 L 58.421875 -124.984375 L 58.421875 0 Z M 12.1875 -187.46875 L 59.4375 -187.46875 L 59.4375 -146.578125 L 12.1875 -146.578125 Z M 12.1875 -187.46875 "/></g></g></g><g fill="#ffffff" fill-opacity="1"><g transform="translate(696.278548, 235.596732)"><g><path d="M 10.921875 -46.234375 L 57.921875 -46.234375 L 57.921875 0 L 10.921875 0 Z M 10.921875 -46.234375 "/></g></g></g></svg>